<svg xmlns="http://www.w3.org/2000/svg" xmlns:xlink="http://www.w3.org/1999/xlink" width="58" height="49" viewBox="0 0 58 49">
    <defs>
        <path id="a" d="M0 0h57.613v48.281H.001z"/>
    </defs>
    <g fill="none" fill-rule="evenodd">
        <mask id="b" fill="#fff">
            <use xlink:href="#a"/>
        </mask>
        <path fill="#00AAEA" d="M22.621 11.663h12.371V6.291H22.621v5.372zm0 6.998h12.371V13.29H22.621v5.372zM1.773 46.655h54.066l-4.395-26.367H6.168L1.773 46.655zm-.96 1.626a.811.811 0 0 1-.801-.946l4.665-27.994a.811.811 0 0 1 .801-.68h15.518V5.478a3.857 3.857 0 0 0-3.853-3.852 3.857 3.857 0 0 0-3.853 3.852.815.815 0 0 1-.813.814.814.814 0 0 1-.812-.814A5.484 5.484 0 0 1 17.143 0a5.491 5.491 0 0 1 5.159 3.654l.358 1.011h12.293l.358-1.01A5.493 5.493 0 0 1 40.47 0a5.484 5.484 0 0 1 5.478 5.478.813.813 0 1 1-1.625 0 3.857 3.857 0 0 0-3.853-3.852 3.857 3.857 0 0 0-3.852 3.852v13.183h15.516c.399 0 .737.287.802.681l4.666 27.992a.811.811 0 0 1-.802.947H.813z" mask="url(#b)"/>
        <path fill="#00AAEA" d="M22.973 30.18c-1.114 0-1.711-.382-2.19-.688-.417-.268-.705-.433-1.312-.433-.605 0-.893.164-1.31.432-.48.307-1.076.69-2.187.69-1.112 0-1.708-.383-2.188-.69-.417-.268-.703-.432-1.308-.432a.814.814 0 0 1 0-1.626c1.11 0 1.708.382 2.186.69.42.267.706.431 1.31.431.605 0 .893-.164 1.31-.432.478-.307 1.075-.689 2.187-.689 1.115 0 1.71.382 2.189.688.417.268.705.433 1.313.433.605 0 .893-.164 1.312-.43.48-.309 1.075-.69 2.19-.69a.813.813 0 0 1 0 1.625c-.61 0-.897.165-1.315.434-.476.305-1.073.687-2.187.687M45.137 39.51c-1.113 0-1.708-.382-2.186-.688-.42-.269-.706-.433-1.31-.433-.604 0-.89.163-1.307.43-.483.31-1.078.691-2.19.691-1.115 0-1.71-.38-2.188-.688-.42-.269-.707-.433-1.314-.433-.606 0-.894.164-1.312.433-.48.306-1.076.688-2.19.688a.815.815 0 0 1-.814-.813c0-.448.366-.813.814-.813.606 0 .894-.164 1.312-.432.48-.308 1.078-.69 2.19-.69 1.113 0 1.71.382 2.189.69.42.268.707.432 1.313.432.603 0 .89-.164 1.307-.43.484-.31 1.08-.692 2.19-.692 1.112 0 1.708.383 2.186.69.417.267.705.432 1.31.432a.813.813 0 0 1 0 1.626" mask="url(#b)"/>
    </g>
</svg>
