<svg xmlns="http://www.w3.org/2000/svg" width="23" height="26" viewBox="0 0 23 26">
    <g fill="#00AAEA" fill-rule="evenodd">
        <path d="M17.293 23.837l-1.51-4.152a8.117 8.117 0 0 1-4.2 1.162 8.108 8.108 0 0 1-1.918-.23l-1.43 3.22h9.058zM5.835 25.395l2.971-6.68.673.228c.678.23 1.386.345 2.104.345a6.54 6.54 0 0 0 4.104-1.429l.847-.671 2.984 8.207H5.835z"/>
        <path d="M8.983 20.42A8.206 8.206 0 0 1 4.32 16.43l-.12-.232 1.386-.715.12.23a6.633 6.633 0 0 0 3.77 3.229l.248.082-.494 1.48-.246-.083zM15.484 18.02l.203-.16a6.582 6.582 0 0 0 2.508-5.183c0-1.492-.485-2.9-1.403-4.074l-.16-.205 1.227-.96.16.204a8.1 8.1 0 0 1 1.735 5.035 8.131 8.131 0 0 1-3.098 6.403l-.205.163-.967-1.222z"/>
        <path d="M17.293 23.837l-1.51-4.152a8.117 8.117 0 0 1-4.2 1.162 8.108 8.108 0 0 1-1.918-.23l-1.43 3.22h9.058zM5.835 25.395l2.971-6.68.673.228c.678.23 1.386.345 2.104.345a6.54 6.54 0 0 0 4.104-1.429l.847-.671 2.984 8.207H5.835zM12.39 12.465l6.695-7.472-1.315-1.178-6.695 7.473 1.315 1.177zm.008 1.61c-.351 0-.691-.129-.955-.365l-1.5-1.345a1.436 1.436 0 0 1-.112-2.024l6.86-7.66a1.436 1.436 0 0 1 2.026-.112l1.5 1.346c.589.527.64 1.436.112 2.024l-6.861 7.66a1.427 1.427 0 0 1-.989.475l-.08.001zM.78 16.85a.78.78 0 0 1 0-1.558h7.959a.78.78 0 0 1 0 1.558H.779z"/>
        <path d="M19.26 4.254a.78.78 0 0 1-.582-1.3L21.093.259A.783.783 0 0 1 22.195.2a.776.776 0 0 1 .06 1.1L19.84 3.995a.785.785 0 0 1-.58.259"/>
    </g>
</svg>
