<svg xmlns="http://www.w3.org/2000/svg" xmlns:xlink="http://www.w3.org/1999/xlink" width="15" height="49" viewBox="0 0 15 49">
    <defs>
        <path id="a" d="M0 .349h14.376v48.65H0z"/>
    </defs>
    <g fill="none" fill-rule="evenodd">
        <g transform="translate(0 -.348)">
            <mask id="b" fill="#fff">
                <use xlink:href="#a"/>
            </mask>
            <path fill="#2B3D47" d="M9.64 44.946c.134 0 .268.04.392.126.317.215.484.666.405 1.104-.011.078-.025.38.089.544.106.162.381.253.748.253.427 0 .756-.216 1.006-.661.503-.891.767-3.02-.14-6.085a1.349 1.349 0 0 1-.049-.35V21.635c0-.105.014-.211.039-.313 1.261-4.812.135-6.74-1.168-8.974-1.004-1.718-2.139-3.667-2.139-6.93V3.389c0-.56-.369-1.013-.818-1.013H6.37c-.449 0-.817.454-.817 1.013v2.028c0 3.263-1.136 5.212-2.141 6.93C2.11 14.58.985 16.509 2.244 21.32c.028.102.041.208.041.313v18.244c0 .12-.018.237-.049.349-.908 3.065-.643 5.194-.14 6.085.251.445.579.66 1.006.66.367 0 .642-.09.748-.252.111-.167.1-.466.085-.56-.064-.436.106-.883.424-1.088.318-.21.704-.142.956.17.181.225.313.476.443.72.32.61.532 1.01 1.43 1.01.897 0 1.11-.4 1.431-1.01.128-.244.26-.495.442-.72a.75.75 0 0 1 .579-.296M11.274 49c-1.044 0-1.631-.47-1.951-.906-.437.489-1.087.906-2.135.906-1.048 0-1.698-.417-2.135-.906-.32.436-.907.906-1.951.906-.958 0-1.792-.543-2.348-1.528-.968-1.721-1.007-4.616-.104-7.77V21.794c-1.449-5.686.085-8.313 1.44-10.635.94-1.613 1.829-3.135 1.829-5.742V3.389c0-1.676 1.1-3.04 2.451-3.04h1.635c1.352 0 2.452 1.364 2.452 3.04v2.028c0 2.607.889 4.129 1.829 5.742 1.355 2.322 2.89 4.95 1.44 10.635v17.908c.902 3.154.863 6.05-.105 7.77-.555.985-1.389 1.528-2.347 1.528" mask="url(#b)"/>
        </g>
        <path fill="#2B3D47" d="M9.64 6.082H4.737c-.451 0-.818-.454-.818-1.014s.367-1.013.818-1.013H9.64c.451 0 .817.454.817 1.013 0 .56-.366 1.014-.817 1.014M12.909 22.299H1.466c-.452 0-.818-.454-.818-1.014s.367-1.014.819-1.014h11.44c.452 0 .818.454.818 1.014s-.367 1.014-.818 1.014M12.909 40.543H1.466c-.452 0-.818-.454-.818-1.014 0-.559.367-1.013.819-1.013h11.44c.452 0 .818.454.818 1.013 0 .56-.367 1.014-.818 1.014"/>
    </g>
</svg>
