<svg xmlns="http://www.w3.org/2000/svg" width="19" height="26" viewBox="0 0 19 26">
    <g fill="#343F48" fill-rule="evenodd">
        <path d="M9.09 18.717c-3.35 0-5.974-1.483-5.974-3.377v-.259h1.558v.26c0 .74 1.72 1.817 4.416 1.817 2.694 0 4.415-1.077 4.415-1.818v-.259h1.558v.26c0 1.893-2.624 3.376-5.973 3.376"/>
        <path d="M7.714 2.078l-.049.825a37.647 37.647 0 0 1-.822 5.888 38.296 38.296 0 0 1-2.604 7.705l-2.574 5.593c-.163.354-.135.733.08 1.068.298.463.888.751 1.538.751h11.614c.652 0 1.243-.29 1.54-.755.217-.337.243-.705.078-1.063l-2.576-5.594c-2.002-4.35-3.154-8.923-3.426-13.593l-.047-.825h2.02v-.52H5.734v.52h1.98zM3.283 25.467c-1.195 0-2.26-.549-2.85-1.469a2.628 2.628 0 0 1-.185-2.559l2.576-5.596a36.673 36.673 0 0 0 2.496-7.39c.353-1.587.598-3.206.73-4.817H4.176V0h9.87v3.636h-1.917c.34 4.187 1.425 8.293 3.226 12.208l2.577 5.593c.387.841.322 1.773-.181 2.558-.59.921-1.656 1.472-2.853 1.472H3.283z"/>
    </g>
</svg>
