<svg xmlns="http://www.w3.org/2000/svg" width="20" height="24" viewBox="0 0 20 24">
    <g fill="#343F48" fill-rule="nonzero" opacity=".7">
        <path d="M18.411 5.95L10.76.954a.637.637 0 0 0-.267-.69c-.3-.197-.735-.131-.936.197l-2.84 4.208a.646.646 0 0 0 .2.921c.1.066.502.197.77-.033l7.651 4.965c1.838 1.084 3.375 0 3.876-.79.869-1.216.501-2.958-.802-3.78zm-8.353-3.846l3.775 2.433-4.076.822-1.303-.855 1.604-2.4zm8.052 6.937c-.267.395-1.035.986-2.038.395l-4.745-3.09 4.077-.823 2.272 1.48c.668.493.869 1.38.434 2.038zM13.7 11.441a.654.654 0 0 0-.902.23s-1.136 2.006-1.136 2.104v5.557H2.406v-1.283h.935a.665.665 0 0 0 .669-.657c0-.362-.301-.658-.669-.658H2.44v-.756h2.473a.665.665 0 0 0 .668-.657c0-.362-.3-.658-.668-.658H2.439v-.855c0-.131-1.136-2.104-1.136-2.104-.2-.329-.601-.427-.902-.23-.334.197-.434.592-.234.888l.97 1.643v7.365c0 1.38 1.135 2.531 2.572 2.531h6.783c1.403 0 2.573-1.117 2.573-2.531v-7.397l.969-1.644c.1-.329 0-.724-.334-.888zm-3.275 11.08H3.642a1.224 1.224 0 0 1-1.236-1.217v-.657h9.222v.657c.034.69-.535 1.217-1.203 1.217z"/>
        <path d="M7.117 14.005c1.203 0 2.206-.953 2.206-2.17 0-.986-1.27-2.662-1.671-3.188a.702.702 0 0 0-.535-.263c-.2 0-.4.098-.534.263-.401.493-1.671 2.202-1.671 3.189a2.207 2.207 0 0 0 2.205 2.17zm0-3.813c.501.723.869 1.413.869 1.644 0 .46-.368.854-.869.854a.856.856 0 0 1-.869-.854c.034-.23.401-.92.87-1.644z"/>
    </g>
</svg>
