<svg xmlns="http://www.w3.org/2000/svg" xmlns:xlink="http://www.w3.org/1999/xlink" width="40" height="51" viewBox="0 0 40 51">
    <defs>
        <path id="a" d="M0 0h39.101v50.71H.001z"/>
    </defs>
    <g fill="none" fill-rule="evenodd">
        <mask id="b" fill="#fff">
            <use xlink:href="#a"/>
        </mask>
        <path fill="#2B3D47" d="M37.066 14.243L31.128 1.58H7.971L2.033 14.244h35.034zM21.083 20.68v-.311c0-.845-.688-1.532-1.534-1.532-.843 0-1.532.688-1.532 1.532v.311h3.067zm.396 6.407l.54-4.826h-4.94l.541 4.826h3.858zm11.81 4.31V15.823h-12.95v1.539a3.132 3.132 0 0 1 2.324 3.006v.311h.24a.793.793 0 0 1 .785.878l-.718 6.409a.79.79 0 0 1-.785.702h-5.27a.79.79 0 0 1-.785-.703l-.72-6.408a.788.788 0 0 1 .785-.878h.241v-.31a3.13 3.13 0 0 1 2.323-3.008v-1.538H5.811v15.572h27.477zm-30.614 4.4H9.47v-2.82H2.673v2.82zm8.375 0h7.71v-2.82h-7.71v2.82zm9.29 0h7.71v-2.82h-7.71v2.82zm9.29 0h6.793v-2.82H29.63v2.82zm-26.954 4.54H6.91v-2.96H2.676v2.96zm5.815 0h6.319v-2.96H8.49v2.96zm7.9 0h6.319v-2.96h-6.32v2.96zm14.218 0v-2.96h-6.32v2.96h6.32zm1.58 0h4.234v-2.96h-4.235v2.96zM2.674 44.877H9.47v-2.96H2.673v2.96zm8.375 0h7.71v-2.96h-7.71v2.96zm9.29 0h7.71v-2.96h-7.71v2.96zm9.29 0h6.793v-2.96H29.63v2.96zM2.675 49.13H6.91v-2.672H2.676v2.672zm5.815 0h6.319v-2.672H8.49v2.672zm7.9 0h6.319v-2.672h-6.32v2.672zm7.899 0h6.32v-2.672h-6.32v2.672zm7.898 0h4.235v-2.672h-4.235v2.672zM1.884 50.71a.792.792 0 0 1-.788-.791V32.187a.79.79 0 0 1 .788-.79h2.347V15.823H.791a.784.784 0 0 1-.666-.367.784.784 0 0 1-.05-.76L6.755.455a.79.79 0 0 1 .715-.456h24.16c.305 0 .585.18.713.456l6.683 14.242a.789.789 0 0 1-.716 1.127h-3.44v15.572h2.346a.79.79 0 0 1 .79.79V49.92a.791.791 0 0 1-.79.79H1.884z" mask="url(#b)"/>
    </g>
</svg>
