<svg xmlns="http://www.w3.org/2000/svg" width="56" height="7" viewBox="0 0 56 7">
    <path fill="#2B3D47" fill-rule="nonzero" d="M1.504 2.496a1 1 0 0 1 0-2c1.925 0 2.919.63 4.51 2.313C7.26 4.126 7.843 4.496 9.071 4.496s1.81-.37 3.057-1.687c1.591-1.683 2.585-2.313 4.51-2.313 1.925 0 2.919.63 4.51 2.313 1.247 1.317 1.83 1.687 3.059 1.687 1.228 0 1.812-.37 3.058-1.687C28.858 1.126 29.853.496 31.778.496c1.925 0 2.92.63 4.511 2.313 1.247 1.317 1.83 1.687 3.058 1.687 1.23 0 1.814-.37 3.061-1.688C44.001 1.126 44.995.496 46.921.496c1.926 0 2.92.63 4.514 2.312 1.247 1.318 1.83 1.688 3.06 1.688a1 1 0 0 1 0 2c-1.925 0-2.92-.63-4.513-2.313-1.248-1.317-1.831-1.687-3.061-1.687s-1.813.37-3.06 1.687c-1.593 1.682-2.588 2.313-4.514 2.313-1.925 0-2.919-.63-4.51-2.313-1.247-1.318-1.83-1.687-3.059-1.687-1.23 0-1.812.37-3.06 1.687-1.592 1.682-2.586 2.313-4.511 2.313-1.926 0-2.92-.63-4.511-2.313-1.247-1.318-1.83-1.687-3.058-1.687-1.228 0-1.81.37-3.057 1.687-1.591 1.682-2.585 2.313-4.51 2.313-1.925 0-2.919-.63-4.51-2.313-1.246-1.318-1.829-1.687-3.057-1.687z" opacity=".9"/>
</svg>
