<svg xmlns="http://www.w3.org/2000/svg" xmlns:xlink="http://www.w3.org/1999/xlink" width="53" height="52" viewBox="0 0 53 52">
    <defs>
        <path id="a" d="M.354.25h1.605V52H.354z"/>
        <path id="c" d="M0 .395h52.313V2H0z"/>
    </defs>
    <g fill="none" fill-rule="evenodd" opacity=".9">
        <path fill="#2B3D47" d="M8.431 43.409c0 1.937 1.357 3.512 3.025 3.512s3.025-1.575 3.025-3.512V19.302h-6.05v24.107zm3.025 5.117c-2.552 0-4.629-2.296-4.629-5.117v-24.91c0-.442.36-.802.801-.802h7.656c.442 0 .802.36.802.802v24.91c0 2.82-2.077 5.117-4.63 5.117z"/>
        <path fill="#2B3D47" d="M5.395 19.302a.803.803 0 0 1 0-1.605h12.122c.442 0 .803.36.803.803a.804.804 0 0 1-.803.802H5.395zM38.172 37.6c0 1.937 1.357 3.512 3.025 3.512s3.026-1.575 3.026-3.512V13.493h-6.05V37.6zm3.025 5.117c-2.552 0-4.629-2.296-4.629-5.117V12.69c0-.442.36-.802.802-.802h7.655c.442 0 .802.36.802.802V37.6c0 2.821-2.077 5.117-4.63 5.117z"/>
        <path fill="#2B3D47" d="M35.136 13.493a.804.804 0 0 1-.803-.803c0-.442.361-.802.803-.802h12.121a.803.803 0 0 1 .001 1.605H35.136z"/>
        <g transform="translate(25 -.249)">
            <mask id="b" fill="#fff">
                <use xlink:href="#a"/>
            </mask>
            <path fill="#2B3D47" d="M1.156 52a.803.803 0 0 1-.802-.803V1.051a.803.803 0 0 1 1.605 0v50.146a.804.804 0 0 1-.803.803" mask="url(#b)"/>
        </g>
        <g transform="translate(0 49.752)">
            <mask id="d" fill="#fff">
                <use xlink:href="#c"/>
            </mask>
            <path fill="#2B3D47" d="M.802 2A.804.804 0 0 1 0 1.197C0 .755.36.395.802.395H51.51c.442 0 .803.36.803.802A.804.804 0 0 1 51.51 2H.802z" mask="url(#d)"/>
        </g>
        <path fill="#2B3D47" d="M15.285 26.678a.804.804 0 0 1-.803-.803c0-.442.36-.802.803-.802h10.87c.443 0 .804.36.804.802a.804.804 0 0 1-.803.803H15.285zM26.156 19.302a.803.803 0 0 1 0-1.605H37.37a.803.803 0 0 1 0 1.605H26.156zM11.287 14.432a1.193 1.193 0 0 1-1.2-1.184c0-.652.539-1.184 1.2-1.184.66 0 1.199.532 1.199 1.184 0 .653-.538 1.184-1.2 1.184M7.628 9.87a.582.582 0 0 1-.585-.576c0-.317.263-.575.585-.575.324 0 .588.258.588.575a.582.582 0 0 1-.587.576M12.162 6.68a.355.355 0 0 1-.358-.352c0-.193.16-.35.358-.35.197 0 .358.157.358.35a.355.355 0 0 1-.358.351M41.33 8.996a1.193 1.193 0 0 1-1.198-1.184c0-.653.538-1.184 1.199-1.184.662 0 1.2.53 1.2 1.184 0 .653-.538 1.184-1.2 1.184M37.673 4.434a.582.582 0 0 1-.586-.577c0-.318.263-.576.586-.576.323 0 .587.258.587.576a.583.583 0 0 1-.587.577M42.208 1.242A.355.355 0 0 1 41.85.89c0-.193.16-.35.358-.35.197 0 .358.157.358.35a.355.355 0 0 1-.358.35"/>
    </g>
</svg>
