<svg xmlns="http://www.w3.org/2000/svg" xmlns:xlink="http://www.w3.org/1999/xlink" width="36" height="51" viewBox="0 0 36 51">
    <defs>
        <path id="a" d="M0 .031h32.286v24.865H0z"/>
        <path id="c" d="M.668.732h16.515V21H.668z"/>
    </defs>
    <g fill="none" fill-rule="evenodd" opacity=".9">
        <g transform="translate(0 -.031)">
            <mask id="b" fill="#fff">
                <use xlink:href="#a"/>
            </mask>
            <path fill="#2B3D47" d="M23.54 15.983a.76.76 0 0 1 .76.76v3.014c0 .4-.31.734-.707.763a1.261 1.261 0 0 0-1.165 1.256v.366c0 .694.563 1.258 1.257 1.258h5.819c.693 0 1.257-.564 1.257-1.258v-.367a1.262 1.262 0 0 0-1.162-1.255.764.764 0 0 1-.71-.761v-7.104c0-.693-.564-1.256-1.257-1.256h-8.878a.762.762 0 0 1-.761-.761v-.593c0-.693-.563-1.257-1.257-1.257h-1.497a.762.762 0 0 1-.761-.761V4.819c0-.42.34-.76.76-.76h2.063A1.26 1.26 0 0 0 18.559 2.8 1.26 1.26 0 0 0 17.3 1.544H9.15a1.259 1.259 0 0 0 0 2.515h1.357l.705.008c.424 0 .765.34.765.76v3.196c0 .419-.341.76-.761.76H9.602c-.694 0-1.257.564-1.257 1.258v.593c0 .419-.341.76-.761.76H2.742a1.26 1.26 0 0 0-1.258 1.257v2.075a1.26 1.26 0 0 0 1.258 1.257h4.842c.42 0 .76.34.76.76v.594c0 .693.564 1.257 1.258 1.257h7.13c.694 0 1.257-.564 1.257-1.257v-.594c0-.42.34-.76.76-.76h4.79zm.14 8.913a2.78 2.78 0 0 1-2.777-2.778v-.367a2.786 2.786 0 0 1 1.612-2.518l.26-.12v-1.61h-3.242l-.07.364a2.785 2.785 0 0 1-2.727 2.247H9.602a2.783 2.783 0 0 1-2.71-2.242l-.072-.364H2.778A2.78 2.78 0 0 1 0 14.73v-2.075a2.78 2.78 0 0 1 2.778-2.777H6.82l.07-.365a2.784 2.784 0 0 1 2.712-2.246l.848.017V5.587H9.15A2.78 2.78 0 0 1 6.372 2.81 2.781 2.781 0 0 1 9.15.03h8.147a2.781 2.781 0 0 1 2.778 2.78 2.78 2.78 0 0 1-2.778 2.777h-1.302v1.676h.737c1.327 0 2.472.945 2.726 2.246l.07.365h8.108a2.78 2.78 0 0 1 2.777 2.777v6.462l.26.12a2.79 2.79 0 0 1 1.613 2.519v.366a2.78 2.78 0 0 1-2.778 2.778H23.68z" mask="url(#b)"/>
        </g>
        <g transform="translate(18 29.969)">
            <mask id="d" fill="#fff">
                <use xlink:href="#c"/>
            </mask>
            <path fill="#2B3D47" d="M2.743 5.736h12.363l.468-3.502H2.276l.467 3.502zm1.836 13.762h8.692l1.635-12.26H2.943l1.636 12.26zM3.92 21a.753.753 0 0 1-.745-.652L.675 1.583a.748.748 0 0 1 .744-.851H16.43a.752.752 0 0 1 .746.85l-2.503 18.766a.752.752 0 0 1-.744.652H3.92z" mask="url(#d)"/>
        </g>
    </g>
</svg>
