<svg xmlns="http://www.w3.org/2000/svg" xmlns:xlink="http://www.w3.org/1999/xlink" width="37" height="52" viewBox="0 0 37 52">
    <defs>
        <path id="a" d="M0 .9h36.882V52H0z"/>
    </defs>
    <g fill="none" fill-rule="evenodd" opacity=".9">
        <path fill="#2B3D47" d="M18.441 7.836c-5.933 0-10.76 4.827-10.76 10.76s4.827 10.761 10.76 10.761 10.76-4.828 10.76-10.762c0-5.932-4.827-10.759-10.76-10.759m0 23.195c-6.857 0-12.436-5.579-12.436-12.436s5.58-12.434 12.436-12.434 12.435 5.577 12.435 12.434c0 6.857-5.579 12.436-12.435 12.436"/>
        <g transform="translate(0 -.9)">
            <mask id="b" fill="#fff">
                <use xlink:href="#a"/>
            </mask>
            <path fill="#2B3D47" d="M18.442 2.576c-9.245 0-16.768 7.522-16.768 16.767 0 3.684 1.19 7.19 3.438 10.14l.15.196a16.726 16.726 0 0 0 2.154 2.275l.078.078 9.406 9.992c.257.262.783.687 1.523.687.574 0 1.12-.255 1.623-.757l11.678-12.417c2.295-3.005 3.484-6.51 3.484-10.194 0-9.245-7.522-16.767-16.766-16.767m0 49.424c-4.158 0-8.366-1.333-8.366-3.882 0-1.165.85-2.12 2.528-2.84-.003.002-.003.002 0 .002.01 0 .08-.016.171-.016.31 0 1.071.445 1.404.772 0 0-1.716.773-2.24 1.652-.226.378.002.865.002.865.541.685 2.783 1.773 6.501 1.773 3.718 0 5.96-1.088 6.5-1.774 0 0 .376-.457 0-.867-3.044-2.417-6.51-1.566-6.51-1.566L6.304 33.212a4.945 4.945 0 0 1-.217-.21c-.059-.058-.118-.117-.178-.173-2.954-3.016-4.37-6.14-4.735-7.025A18.215 18.215 0 0 1 0 19.344C0 9.173 8.272.9 18.441.9c10.17 0 18.441 8.273 18.441 18.442 0 2.698-.572 5.296-1.7 7.722a23.851 23.851 0 0 1-2.604 4.016l-1.95 2.08-10.454 11.105 1.292.216c1.253.21 5.34 1.092 5.34 3.637 0 2.55-4.208 3.882-8.365 3.882" mask="url(#b)"/>
        </g>
    </g>
</svg>
