<svg xmlns="http://www.w3.org/2000/svg" xmlns:xlink="http://www.w3.org/1999/xlink" width="41" height="51" viewBox="0 0 41 51">
    <defs>
        <path id="a" d="M0 .137h40.233V51H0z"/>
    </defs>
    <g fill="none" fill-rule="evenodd" opacity=".9">
        <g transform="translate(0 -.137)">
            <mask id="b" fill="#fff">
                <use xlink:href="#a"/>
            </mask>
            <path fill="#2B3D47" d="M25.753 10.232a3.796 3.796 0 0 0 3.792 3.791h7.707l-11.5-11.028v7.237zM1.71 49.292h33.022a3.797 3.797 0 0 0 3.792-3.794V15.734h-8.98a5.509 5.509 0 0 1-5.501-5.502V1.845H1.71v47.447zM.855 51A.856.856 0 0 1 0 50.146V.992C0 .52.384.137.855.137h24.043a.85.85 0 0 1 .58.232l.067.06L39.92 14.213l.028.043.1.073c.093.101.185.32.185.55v30.618A5.507 5.507 0 0 1 34.732 51H.855z" mask="url(#b)"/>
        </g>
        <path fill="#2B3D47" d="M8.725 25.569a.855.855 0 0 1 0-1.71H31.51a.856.856 0 0 1 0 1.709H8.725zM8.725 33.562a.855.855 0 0 1 0-1.708h5.736c.472 0 .856.383.856.854a.856.856 0 0 1-.856.854H8.725zM21.343 33.562a.855.855 0 0 1 0-1.708h2.83c.472 0 .856.383.856.854a.856.856 0 0 1-.856.854h-2.83z"/>
    </g>
</svg>
