<svg xmlns="http://www.w3.org/2000/svg" width="54" height="51" viewBox="0 0 54 51">
    <g fill="#2B3D47" fill-rule="evenodd" opacity=".9">
        <path d="M12.656 20.845c-4.33 0-7.853 3.522-7.853 7.852 0 4.275 3.392 7.724 7.722 7.851h.25c4.27-.125 7.733-3.647 7.733-7.85 0-4.33-3.523-7.853-7.852-7.853zm-2.563 20.02l2.563 2.861 2.562-2.862-2.562-2.56-2.563 2.56zm-8.91 9.905c-.49 0-.783-.293-.783-.783V39.46a2.915 2.915 0 0 1 2.911-2.912h4.062l-.849-.707c-2.088-1.74-3.285-4.345-3.285-7.144 0-5.193 4.225-9.418 9.417-9.418s9.416 4.225 9.416 9.418c0 2.8-1.197 5.403-3.285 7.144l-.849.707H22c1.578 0 2.911 1.28 2.911 2.794v10.526c0 .491-.292.784-.782.784a.786.786 0 0 1-.783-.784V39.342c0-.843-.684-1.347-1.346-1.347h-7.354l2.221 2.221c.204.28.32.771 0 1.09l-3.293 3.673 2.885 4.513c.123.327.09.84-.342 1.098-.126.062-.17.062-.386.062-.303 0-.549-.14-.73-.414l-2.345-3.86-2.354 3.874c-.156.234-.5.4-.722.4-.215 0-.26 0-.41-.077-.256-.198-.437-.686-.194-1.092l2.76-4.513-3.282-3.535c-.325-.326-.325-.785-.01-1.1l2.221-2.22H3.311c-.843 0-1.346.683-1.346 1.345v10.527c0 .49-.292.783-.783.783z"/>
        <path d="M12.656 33.147c-2.495 0-4.449-1.955-4.449-4.45 0-.49.292-.782.782-.782.49 0 .782.292.782.782 0 1.644 1.24 2.884 2.885 2.884 1.644 0 2.884-1.24 2.884-2.884 0-.49.292-.782.782-.782.49 0 .782.292.782.782 0 2.495-1.954 4.45-4.448 4.45M41.634 33.147c-2.494 0-4.448-1.955-4.448-4.45 0-.49.292-.782.782-.782.49 0 .782.292.782.782 0 1.644 1.24 2.884 2.884 2.884 1.645 0 2.885-1.24 2.885-2.884 0-.49.292-.782.782-.782.49 0 .782.292.782.782 0 2.495-1.954 4.45-4.45 4.45"/>
        <path d="M41.634 20.845c-4.33 0-7.852 3.522-7.852 7.852s3.523 7.851 7.852 7.851c4.33 0 7.853-3.522 7.853-7.85 0-4.33-3.523-7.853-7.853-7.853M53.108 50.77a.786.786 0 0 1-.783-.783V39.46c0-.843-.684-1.346-1.346-1.346h-18.69c-.842 0-1.345.684-1.345 1.346v10.527c0 .49-.292.783-.783.783-.49 0-.782-.293-.782-.783V39.46a2.915 2.915 0 0 1 2.91-2.912h4.063l-.85-.707c-2.087-1.74-3.284-4.345-3.284-7.144 0-5.193 4.224-9.418 9.416-9.418s9.417 4.225 9.417 9.418c0 2.8-1.197 5.403-3.285 7.144l-.85.707h4.063a2.915 2.915 0 0 1 2.91 2.912v10.527c0 .49-.291.783-.781.783M9.58 1.566c-.49 0-.782-.293-.782-.783 0-.49.292-.783.782-.783h13.366c.49 0 .782.293.782.783 0 .49-.292.783-.782.783H9.58zM9.58 6.297c-.49 0-.782-.292-.782-.783 0-.49.292-.783.782-.783h13.366c.49 0 .782.293.782.783 0 .491-.292.783-.782.783H9.58zM9.58 11.028c-.49 0-.782-.293-.782-.783 0-.49.292-.782.782-.782h5.441c.491 0 .783.293.783.783a.785.785 0 0 1-.783.782h-5.44zM32.29 5.114c-.49 0-.782-.293-.782-.783 0-.49.292-.783.782-.783h13.721c.49 0 .782.293.782.783 0 .49-.292.783-.782.783h-13.72zM32.29 9.845c-.49 0-.782-.292-.782-.783 0-.49.292-.783.782-.783h13.721c.49 0 .782.293.782.783 0 .491-.292.783-.782.783h-13.72zM40.215 14.577c-.49 0-.782-.293-.782-.783 0-.49.292-.783.782-.783h5.796c.49 0 .782.293.782.783 0 .49-.292.783-.782.783h-5.796z"/>
    </g>
</svg>
