<svg xmlns="http://www.w3.org/2000/svg" xmlns:xlink="http://www.w3.org/1999/xlink" width="65" height="51" viewBox="0 0 65 51">
    <defs>
        <path id="a" d="M.359.638h1.6V51h-1.6z"/>
        <path id="c" d="M.464.638h1.6V51h-1.6z"/>
    </defs>
    <g fill="none" fill-rule="evenodd">
        <g transform="translate(44 -.638)">
            <mask id="b" fill="#fff">
                <use xlink:href="#a"/>
            </mask>
            <path fill="#2B3D47" d="M1.159 51a.8.8 0 0 1-.8-.8V1.437a.8.8 0 0 1 1.6 0V50.2a.8.8 0 0 1-.8.8" mask="url(#b)"/>
        </g>
        <g transform="translate(18 -.638)">
            <mask id="d" fill="#fff">
                <use xlink:href="#c"/>
            </mask>
            <path fill="#2B3D47" d="M1.264 51a.8.8 0 0 1-.8-.8V1.437a.801.801 0 0 1 1.6 0V50.2a.8.8 0 0 1-.8.8" mask="url(#d)"/>
        </g>
        <path fill="#2B3D47" d="M19.05 12.061H.811a.8.8 0 1 1 0-1.6H19.05a.8.8 0 0 1 0 1.6M.8 17.338a.798.798 0 0 1-.566-1.365l2.772-2.772a.8.8 0 0 1 1.131 1.131l-2.772 2.772a.797.797 0 0 1-.565.234M6.946 17.338a.798.798 0 0 1-.566-1.365l2.77-2.772a.8.8 0 0 1 1.132 1.131L7.51 17.104a.797.797 0 0 1-.565.234M13.09 17.338a.799.799 0 0 1-.565-1.365l2.771-2.772a.8.8 0 0 1 1.131 1.131l-2.772 2.772a.797.797 0 0 1-.565.234M64.136 12.061H45.9a.8.8 0 1 1 0-1.6h18.236a.8.8 0 1 1 0 1.6M64.149 17.338a.796.796 0 0 1-.565-.234l-2.773-2.772a.8.8 0 0 1 1.13-1.13l2.773 2.771a.799.799 0 0 1-.565 1.365M58.003 17.338a.796.796 0 0 1-.565-.234l-2.772-2.772a.8.8 0 0 1 1.131-1.13l2.771 2.771a.799.799 0 0 1-.565 1.365M51.859 17.338a.796.796 0 0 1-.565-.234l-2.773-2.772a.8.8 0 0 1 1.13-1.13l2.773 2.771a.799.799 0 0 1-.565 1.365M41.785 26.781c-1.247 0-1.9-.547-2.427-.986-.441-.369-.733-.614-1.4-.614-.665 0-.956.245-1.4.614-.524.439-1.178.986-2.424.986-1.248 0-1.903-.547-2.43-.986-.441-.369-.733-.614-1.4-.614-.668 0-.961.245-1.404.614-.525.439-1.18.986-2.43.986-1.247 0-1.902-.546-2.427-.986-.444-.369-.737-.614-1.404-.614a.8.8 0 1 1 0-1.599c1.249 0 1.903.546 2.428.986.444.369.737.613 1.404.613.668 0 .96-.244 1.404-.614.526-.439 1.18-.985 2.429-.985 1.247 0 1.9.546 2.426.986.444.369.736.613 1.404.613.666 0 .957-.244 1.399-.613.525-.439 1.18-.986 2.426-.986 1.247 0 1.9.547 2.426.986.442.369.733.613 1.4.613a.8.8 0 0 1 0 1.6"/>
    </g>
</svg>
