<svg xmlns="http://www.w3.org/2000/svg" xmlns:xlink="http://www.w3.org/1999/xlink" width="56" height="53" viewBox="0 0 56 53">
    <defs>
        <path id="a" d="M0 .474h55.074V42H0z"/>
    </defs>
    <g fill="none" fill-rule="evenodd">
        <g transform="translate(0 10.215)">
            <mask id="b" fill="#fff">
                <use xlink:href="#a"/>
            </mask>
            <path fill="#2B3D47" d="M14.057 5.1c-.714 0-1.193.617-1.193 1.193v5.923c0 .714.616 1.193 1.193 1.193h.34c.715 0 1.193-.617 1.193-1.193V6.293c0-.714-.616-1.193-1.193-1.193h-.34zm-7.46 5.335a.567.567 0 0 0-.38.359.884.884 0 0 0-.017.527l1.847 4.593c.143.287.396.447.683.447a.73.73 0 0 0 .228-.036l.167-.081c.141-.071.407-.264.407-.488.025-.109.061-.273-.026-.447l-1.76-4.541c-.21-.326-.497-.425-.702-.425h-.26l-.187.092zm26.314 15.024c.718.374 2.865.66 3.33.682h1.1c2.016-.075 3.411-.389 4.157-.932.353-.264.848-1.026.848-1.896 0-.775-.4-1.459-1.188-2.032l-.176-.18c-.31-.374-.689-1.013-.748-1.494.001-.119.052-.285.112-.408l.16-.142c.212-.212.36-.359.506-.581a2.784 2.784 0 0 0 .313-1.222v-.204c0-.091-.037-.163-.06-.21-.243-1.039-1.096-1.732-2.087-1.732-1.202 0-2.01.835-2.01 2.078 0 .929.745 1.682 1.436 1.99a.66.66 0 0 1 .37.349.622.622 0 0 1-.016.494c-.316.758-1.326 1.421-2.163 1.421h-.09c-.198-.066-.566-.069-1.339-.069-1.24 0-2.237.091-3.049.279a.935.935 0 0 1-.295.045c-.11 0-.227-.015-.343-.044a9.397 9.397 0 0 1-1.632-.788l-.505-.315.145.577c.601 2.406 1.641 3.86 3.087 4.323l.036.011h.101zM5.547 27.975c-1.01 0-1.923.716-2.075 1.63a1.902 1.902 0 0 0 .393 1.691c.354.497.892.767 1.546.767h7.761c.431 0 .731.259.782.675.147 1.746 1.595 3.07 3.371 3.07h8.85c.363 0 .681.258.79.643.11.378-.136.733-.42.876-.544.311-1.107.952-.946 1.76.16.795.873 1.35 1.733 1.35h15.25c.861 0 1.575-.555 1.734-1.35.084-.908-.42-1.535-.958-1.766-.273-.137-.517-.492-.408-.87.11-.385.426-.643.79-.643h2.451c2.121 0 3.847-1.788 3.847-3.984a3.853 3.853 0 0 0-3.847-3.849H5.547zM27.401 42c-1.592 0-2.984-1.144-3.236-2.659a2.655 2.655 0 0 1 .124-1.578l.122-.325h-7.086c-2.208 0-4.14-1.437-4.809-3.576l-.053-.168H5.411c-1.037 0-2.01-.477-2.745-1.345-.69-.816-.962-1.882-.763-3.003.051-.311.197-.663.445-1.076l.22-.363H.78c-.409 0-.782-.372-.782-.781 0-.409.373-.781.782-.781h9.856L7.76 23.057l-2.288 1.698a.854.854 0 0 1-.494.165.722.722 0 0 1-.598-.317c-.27-.379-.208-.839.15-1.094l2.861-2.113a.71.71 0 0 1 .463-.171c.223 0 .43.098.572.268l2.32 2.593.403-.247L8.842 17.9h-.164c-.87 0-1.702-.581-2.022-1.413l-1.77-4.562c-.309-.865-.123-1.786.49-2.398l.11-.11-.668-1.778a.762.762 0 0 1 0-.598.703.703 0 0 1 .405-.387.758.758 0 0 1 .298-.062c.31 0 .58.183.686.466L6.88 8.78h.164c.985 0 1.787.544 2.163 1.42l1.767 4.554a2.387 2.387 0 0 1-.064 1.721c-.116.291-.289.539-.563.814l-.11.11 2.643 6.818.464-.087v-9.295l-.164-.055c-1.142-.38-1.879-1.387-1.879-2.564V6.293c0-1.136.757-2.167 1.883-2.565l.16-.056V1.255c0-.408.372-.781.78-.781.41 0 .783.373.783.781v2.364l.178.047c1.217.32 2.068 1.401 2.068 2.627v5.923c0 1.227-.85 2.307-2.068 2.628l-.178.047v9.597l2.665-2.989a.747.747 0 0 1 .577-.274c.168 0 .324.056.451.162l2.871 2.119c.36.258.422.718.152 1.097a.721.721 0 0 1-.597.317.857.857 0 0 1-.498-.168l-2.285-1.695-2.877 3.288h16.082l-.566-.431c-2.822-2.15-2.9-7.18-2.9-7.23 0-.226.054-.364.2-.511a.567.567 0 0 1 .45-.204c.213 0 .427.098.56.256.806 1.029 1.82 1.779 2.772 2.051l.056.016.057-.011c.914-.183 1.96-.268 3.29-.268.516 0 .934.033 1.184.053.117.009.2.015.244.015h.58l-.34-.409c-.747-.745-1.157-1.652-1.157-2.554 0-1.991 1.417-3.436 3.368-3.436 1.381 0 2.601.806 3.186 2.105l.063.141h.156c.282 0 .574 0 .875-.075a.476.476 0 0 1 .173-.036c.184 0 .403.118.53.288.145.194.14.497-.014.753-.539.807-1.04 1.278-1.486 1.389l-.14.035-.035.139a2.112 2.112 0 0 1-.214.493l-.108.207a1.894 1.894 0 0 1-.296.415l-.169.169.17.169c.023.025.046.062.07.099.041.061.082.124.135.175 1.48 1.131 1.698 2.425 1.698 3.098 0 1.182-.585 2.187-1.087 2.689l-.409.41h11.948c.395 0 .782.421.782.849a.812.812 0 0 1-.782.781H49.86l.376.404a5.326 5.326 0 0 1 1.434 3.649 5.416 5.416 0 0 1-5.41 5.41h-.512l.075.299c.148.593.187 1.092.13 1.617C45.703 40.856 44.311 42 42.72 42H27.401z" mask="url(#b)"/>
        </g>
        <path fill="#2B3D47" d="M33.528 5.24c-1.053 0-1.941.888-1.941 1.941a1.92 1.92 0 0 0 1.94 1.942 1.921 1.921 0 0 0 1.943-1.942 1.921 1.921 0 0 0-1.942-1.942m0 5.446c-1.9 0-3.504-1.605-3.504-3.504a3.507 3.507 0 0 1 3.504-3.504 3.508 3.508 0 0 1 3.505 3.504c0 1.9-1.605 3.504-3.505 3.504M33.528 2.38c-.378 0-.781-.274-.781-.782V.781c0-.409.372-.78.78-.78.41 0 .782.371.782.78v.817c0 .41-.372.782-.781.782M33.528 14.294c-.41 0-.781-.373-.781-.782v-.817c0-.408.372-.78.78-.78.41 0 .782.372.782.78v.817c0 .41-.372.782-.781.782M37.477 4.013c-.139 0-.386-.022-.482-.165-.182-.188-.266-.382-.266-.581 0-.2.084-.393.236-.546l.545-.543a.771.771 0 0 1 .545-.238c.2 0 .394.085.545.236a.746.746 0 0 1 0 1.091l-.544.545c-.136.135-.326.201-.579.201M29.103 12.388c-.25 0-.445-.068-.58-.203a.77.77 0 0 1-.235-.545c0-.199.083-.393.235-.545l.545-.544a.81.81 0 0 1 .58-.237.81.81 0 0 1 .58.237.747.747 0 0 1 0 1.09l-.546.544c-.134.135-.329.203-.579.203M39.11 7.962c-.408 0-.781-.373-.781-.78 0-.483.3-.782.782-.782h.816c.41 0 .782.372.782.781a.812.812 0 0 1-.782.781h-.816zM27.196 7.962c-.408 0-.781-.373-.781-.78 0-.41.373-.782.78-.782h.818c.41 0 .783.372.783.781 0 .408-.373.781-.783.781h-.817zM38.021 12.388c-.25 0-.444-.068-.579-.203l-.545-.544a.747.747 0 0 1 0-1.09.81.81 0 0 1 .58-.237.81.81 0 0 1 .58.237l.543.544a.773.773 0 0 1 .236.545c0 .2-.084.393-.236.545-.134.135-.328.203-.579.203M29.647 4.013c-.25 0-.444-.067-.579-.201l-.466-.533a.784.784 0 0 1-.247-.558c0-.199.084-.393.236-.545a.775.775 0 0 1 .546-.236c.2 0 .393.085.545.236l.545.545a.745.745 0 0 1 0 1.09c-.135.135-.329.202-.58.202"/>
    </g>
</svg>
