<svg xmlns="http://www.w3.org/2000/svg" xmlns:xlink="http://www.w3.org/1999/xlink" width="55" height="50" viewBox="0 0 55 50">
    <defs>
        <path id="a" d="M0 .264h54.638V50H0z"/>
    </defs>
    <g fill="none" fill-rule="evenodd">
        <g transform="translate(0 -.264)">
            <mask id="b" fill="#fff">
                <use xlink:href="#a"/>
            </mask>
            <path fill="#2B3D47" d="M9.951 11.443c2.828 8.92 5.082 11.163 16.643 11.163l.715-.003.733.003c11.562 0 13.816-2.244 16.645-11.163l.199-.625H9.754l.197.625zm33.742 6.618c-2.607 4.54-6.416 6.092-15.092 6.153l-.476.003v19.414h24.897v-25.65h-8.304a.803.803 0 0 1-.38-.103l-.411-.223-.234.406zM1.615 43.631h24.897V24.22l-.476-.004c-8.677-.062-12.485-1.614-15.091-6.154l-.234-.409-.413.227a.773.773 0 0 1-.378.101H1.615v25.651zm4.429 4.756h41.698l.679-3.14H5.366l.678 3.14zM5.395 50a.811.811 0 0 1-.79-.635l-.89-4.12-2.908.001A.808.808 0 0 1 0 44.44V17.173c0-.444.362-.805.807-.805h9.262l-.282-.667c-.597-1.412-1.198-3.146-1.894-5.456a.811.811 0 0 1 .774-1.039h17.846v-4.65c0-1.477-1.257-2.678-2.802-2.678-1.547 0-2.805 1.201-2.805 2.678a.808.808 0 0 1-1.614 0c0-2.366 1.982-4.292 4.419-4.292 2.435 0 4.418 1.926 4.418 4.292v4.65h17.842a.81.81 0 0 1 .773 1.04c-.695 2.31-1.296 4.042-1.894 5.454l-.281.667h9.262c.445 0 .808.361.808.805v27.266a.809.809 0 0 1-.808.807h-3.76l-.89 4.12a.811.811 0 0 1-.79.635H5.395z" mask="url(#b)"/>
        </g>
        <path fill="#2B3D47" d="M31.16 35.458a.809.809 0 0 1-.807-.808v-5.301a.809.809 0 0 1 1.616 0v5.3a.809.809 0 0 1-.808.809M23.478 35.458a.809.809 0 0 1-.808-.808v-5.301a.809.809 0 0 1 1.616 0v5.3a.809.809 0 0 1-.808.809"/>
    </g>
</svg>
